
<svg width="20" height="22" viewBox="0 0 20 22" fill="none" xmlns="http://www.w3.org/2000/svg">
<path d="M18.4878 0.82987C17.9528 0.294865 17.2415 0 16.4852 0C15.7288 0 15.0175 0.294389 14.4821 0.829394L11.7428 3.56874L11.3884 3.21486C10.7559 2.58184 9.65087 2.58055 9.01478 3.21486C8.36209 3.86932 8.36209 4.93321 9.01519 5.58719L9.37737 5.94938L3.3536 11.9736V11.9732L2.57097 14.8927L2.32511 15.8097L0.799736 17.3355C0.645769 17.4895 0.645293 17.7397 0.799736 17.8941L1.70788 18.8019C1.78534 18.8793 1.88635 18.9183 1.98784 18.9183C2.08933 18.9183 2.18993 18.8797 2.26739 18.8028L3.79324 17.2769L4.70929 17.0315L7.62976 16.2489L7.62888 16.248L13.6522 10.2242L13.9527 10.5248C14.2698 10.8411 14.6911 11.0151 15.1391 11.0151C15.587 11.0151 16.0079 10.841 16.325 10.5243C16.6421 10.2072 16.8167 9.78589 16.8167 9.33788C16.8167 8.88952 16.6422 8.46819 16.325 8.15147L15.7489 7.57536L18.4887 4.8356C19.5915 3.73101 19.5915 1.93398 18.4878 0.82987ZM12.1509 10.4884L3.62668 14.3345L4.13807 12.4276L9.975 6.59111L12.0048 8.57757L13.0337 9.60647L12.1509 10.4884ZM17.8693 4.21708L14.8985 7.1852C14.8745 7.20357 14.8513 7.22148 14.8286 7.24203L14.4869 7.55044L15.7062 8.77006C15.8579 8.92185 15.9415 9.12353 15.9415 9.33788C15.9415 9.55222 15.8579 9.7539 15.7062 9.90569C15.4035 10.2084 14.8737 10.2076 14.5705 9.90569L14.2704 9.60558L14.2884 9.58761L12.616 7.95108L9.63433 4.96942C9.32156 4.65618 9.32156 4.14656 9.63392 3.83379C9.78571 3.682 9.9878 3.59842 10.2021 3.59842C10.417 3.59842 10.6186 3.68153 10.77 3.83332L11.7682 4.83158L12.0766 4.4873C12.0963 4.46545 12.1143 4.44224 12.1322 4.41597L15.1003 1.44744C15.4708 1.07865 15.9625 0.874794 16.4852 0.874794C17.008 0.874794 17.4997 1.07818 17.8694 1.44832C18.6318 2.21135 18.6318 3.45371 17.8693 4.21708ZM2.49147 21.2607L2.49542 21.2686H2.49106C2.48493 21.6737 2.15597 22.0001 1.75042 22.0001C1.34359 22.0001 1.01503 21.6738 1.00979 21.2686H1.00455L1.00891 21.2607C1.00891 21.2607 1.0085 21.2598 1.0085 21.259C1.0085 20.9974 1.56276 19.8954 1.75042 19.8989C1.93808 19.9024 2.49188 20.9978 2.49188 21.259C2.49194 21.2598 2.49147 21.2607 2.49147 21.2607Z" fill="black"/>
</svg>
