<svg width="73" height="67" viewBox="0 0 73 67" fill="none" xmlns="http://www.w3.org/2000/svg">
<path d="M59.2656 4.1875H47.9764C47.9754 4.1875 47.9746 4.18763 47.9736 4.18763C46.9428 2.91712 45.3037 2.09375 43.4609 2.09375H40.5836C39.7872 0.816824 38.3076 0 36.6875 0C35.0674 0 33.5878 0.816824 32.7914 2.09375H29.9141C28.0713 2.09375 26.4322 2.91712 25.4014 4.18763C25.4004 4.18763 25.3994 4.1875 25.3984 4.1875H14.1094C10.997 4.1875 8.46484 6.53564 8.46484 9.42188V61.7656C8.46484 64.6519 10.997 67 14.1094 67H59.2656C62.378 67 64.9102 64.6519 64.9102 61.7656V9.42188C64.9102 6.53564 62.378 4.1875 59.2656 4.1875ZM26.5273 7.32812C26.5273 5.59646 28.0467 4.1875 29.9141 4.1875H33.5082C33.9859 4.1875 34.4119 3.90864 34.5719 3.49133C34.8923 2.6554 35.7425 2.09375 36.6875 2.09375C37.6325 2.09375 38.4827 2.6554 38.8031 3.49133C38.9631 3.90864 39.3891 4.1875 39.8668 4.1875H43.4609C45.3283 4.1875 46.8477 5.59646 46.8477 7.32812V10.4688H26.5273V7.32812ZM62.6524 61.7656C62.6524 63.4973 61.133 64.9062 59.2656 64.9062H14.1094C12.242 64.9062 10.7227 63.4973 10.7227 61.7656V9.42188C10.7227 7.69021 12.242 6.28125 14.1094 6.28125H24.3831C24.3088 6.61965 24.2695 6.9697 24.2695 7.32812V11.5156C24.2695 12.0938 24.775 12.5625 25.3984 12.5625H47.9766C48.6 12.5625 49.1055 12.0938 49.1055 11.5156V7.32812C49.1055 6.9697 49.0662 6.61965 48.9919 6.28125H59.2656C61.133 6.28125 62.6524 7.69021 62.6524 9.42188V61.7656Z" fill="white"/>
<path d="M59.2656 8.375H52.4922C51.8688 8.375 51.3633 8.84374 51.3633 9.42188C51.3633 10 51.8688 10.4688 52.4922 10.4688H58.1367V47.1094H46.8477C44.9803 47.1094 43.4609 48.5183 43.4609 50.25V56.5311C43.4609 57.1093 43.9664 57.578 44.5898 57.578C45.2133 57.578 45.7188 57.1093 45.7188 56.5311V50.25C45.7188 49.6728 46.2252 49.2031 46.8477 49.2031H56.5402L44.1222 60.7188H15.2383V10.4688H20.8828C21.5063 10.4688 22.0117 10 22.0117 9.42188C22.0117 8.84374 21.5063 8.375 20.8828 8.375H14.1094C13.4859 8.375 12.9805 8.84374 12.9805 9.42188V61.7656C12.9805 62.3438 13.4859 62.8125 14.1094 62.8125H44.59C44.5913 62.8125 44.5924 62.8124 44.5935 62.8124C44.6294 62.8122 44.6652 62.8107 44.701 62.8074C44.7192 62.8057 44.737 62.8027 44.755 62.8002C44.7733 62.7977 44.7918 62.7957 44.81 62.7925C44.8309 62.7887 44.851 62.7834 44.8715 62.7785C44.8866 62.7749 44.9019 62.7719 44.9167 62.7677C44.9373 62.762 44.957 62.7549 44.9771 62.7481C44.9916 62.7431 45.0063 62.7388 45.0207 62.7333C45.0401 62.7259 45.0588 62.7172 45.0775 62.7089C45.0919 62.7024 45.1065 62.6967 45.1206 62.6896C45.14 62.6801 45.1585 62.6692 45.1772 62.6586C45.1899 62.6514 45.2027 62.6449 45.2151 62.6373C45.2377 62.6233 45.2593 62.608 45.2806 62.5927C45.2882 62.5872 45.2963 62.5823 45.3039 62.5766C45.3342 62.5537 45.3631 62.5293 45.3907 62.5035L60.0636 48.8968C60.0653 48.8952 60.0666 48.8934 60.0683 48.8917C60.1014 48.8605 60.1316 48.827 60.1604 48.7924C60.1682 48.7829 60.176 48.7735 60.1833 48.764C60.2114 48.7275 60.2376 48.6898 60.2606 48.65C60.263 48.6459 60.2649 48.6416 60.2671 48.6374C60.2879 48.6004 60.3058 48.5619 60.3217 48.5225C60.3254 48.5134 60.3292 48.5043 60.3326 48.495C60.3485 48.4519 60.3622 48.4078 60.3721 48.3622C60.3727 48.3597 60.3728 48.3571 60.3734 48.3546C60.3818 48.3134 60.3872 48.2713 60.3903 48.2285C60.3913 48.2159 60.3919 48.2035 60.3924 48.1909C60.3928 48.1793 60.3943 48.168 60.3943 48.1562V9.42188C60.3945 8.84374 59.8891 8.375 59.2656 8.375Z" fill="white"/>
<path d="M36.6875 4.1875C36.3898 4.1875 36.0991 4.29873 35.8888 4.49371C35.6785 4.68869 35.5586 4.95826 35.5586 5.23438C35.5586 5.51049 35.6785 5.78006 35.8888 5.97504C36.0991 6.17002 36.3898 6.28125 36.6875 6.28125C36.9838 6.28125 37.2759 6.17002 37.4862 5.97504C37.6965 5.78006 37.8164 5.51049 37.8164 5.23438C37.8164 4.95826 37.6965 4.68869 37.4862 4.49371C37.2759 4.29873 36.9838 4.1875 36.6875 4.1875Z" fill="white"/>
<path d="M41.2031 19.8906H52.4922C53.1156 19.8906 53.6211 19.4219 53.6211 18.8438C53.6211 18.2656 53.1156 17.7969 52.4922 17.7969H41.2031C40.5797 17.7969 40.0742 18.2656 40.0742 18.8438C40.0742 19.4219 40.5797 19.8906 41.2031 19.8906Z" fill="white"/>
<path d="M32.1719 24.0781H52.4922C53.1156 24.0781 53.6211 23.6094 53.6211 23.0312C53.6211 22.4531 53.1156 21.9844 52.4922 21.9844H32.1719C31.5484 21.9844 31.043 22.4531 31.043 23.0312C31.043 23.6094 31.5484 24.0781 32.1719 24.0781Z" fill="white"/>
<path d="M52.4922 30.3594H20.8828C20.2594 30.3594 19.7539 30.8281 19.7539 31.4062C19.7539 31.9844 20.2594 32.4531 20.8828 32.4531H52.4922C53.1156 32.4531 53.6211 31.9844 53.6211 31.4062C53.6211 30.8281 53.1156 30.3594 52.4922 30.3594Z" fill="white"/>
<path d="M52.4922 34.5469H20.8828C20.2594 34.5469 19.7539 35.0156 19.7539 35.5938C19.7539 36.1719 20.2594 36.6406 20.8828 36.6406H52.4922C53.1156 36.6406 53.6211 36.1719 53.6211 35.5938C53.6211 35.0156 53.1156 34.5469 52.4922 34.5469Z" fill="white"/>
<path d="M52.4922 38.7344H20.8828C20.2594 38.7344 19.7539 39.2031 19.7539 39.7812C19.7539 40.3594 20.2594 40.8281 20.8828 40.8281H52.4922C53.1156 40.8281 53.6211 40.3594 53.6211 39.7812C53.6211 39.2031 53.1156 38.7344 52.4922 38.7344Z" fill="white"/>
<path d="M53.6211 43.9688C53.6211 43.3906 53.1156 42.9219 52.4922 42.9219H20.8828C20.2594 42.9219 19.7539 43.3906 19.7539 43.9688C19.7539 44.5469 20.2594 45.0156 20.8828 45.0156H52.4922C53.1156 45.0156 53.6211 44.5469 53.6211 43.9688Z" fill="white"/>
<path d="M40.0742 47.1094H31.043C30.4195 47.1094 29.9141 47.5781 29.9141 48.1562C29.9141 48.7344 30.4195 49.2031 31.043 49.2031H40.0742C40.6977 49.2031 41.2031 48.7344 41.2031 48.1562C41.2031 47.5781 40.6977 47.1094 40.0742 47.1094Z" fill="white"/>
<path d="M40.0742 51.2969H31.043C30.4195 51.2969 29.9141 51.7656 29.9141 52.3438C29.9141 52.9219 30.4195 53.3906 31.043 53.3906H40.0742C40.6977 53.3906 41.2031 52.9219 41.2031 52.3438C41.2031 51.7656 40.6977 51.2969 40.0742 51.2969Z" fill="white"/>
<path d="M19.7539 18.8438C19.7539 19.4219 20.2594 19.8906 20.8828 19.8906H26.5273C27.1508 19.8906 27.6563 19.4219 27.6563 18.8438C27.6563 18.2656 27.1508 17.7969 26.5273 17.7969H20.8828C20.2594 17.7969 19.7539 18.2656 19.7539 18.8438Z" fill="white"/>
<path d="M17.4961 51.8203C17.4961 54.418 19.7749 56.5312 22.5762 56.5312C25.3774 56.5312 27.6563 54.418 27.6563 51.8203C27.6563 49.2226 25.3774 47.1094 22.5762 47.1094C19.7749 47.1094 17.4961 49.2226 17.4961 51.8203ZM25.3984 51.8203C25.3984 53.2634 24.1324 54.4375 22.5762 54.4375C21.02 54.4375 19.7539 53.2634 19.7539 51.8203C19.7539 50.3772 21.02 49.2031 22.5762 49.2031C24.1324 49.2031 25.3984 50.3772 25.3984 51.8203Z" fill="white"/>
</svg>
