<?xml version="1.0" encoding="UTF-8"?>
<svg width="183px" height="20px" viewBox="0 0 183 20" version="1.1" xmlns="http://www.w3.org/2000/svg" xmlns:xlink="http://www.w3.org/1999/xlink">
    <!-- Generator: Sketch 55.2 (78181) - https://sketchapp.com -->
    <title>adidas-runtastic_logo_horizontal_cmyk_black</title>
    <desc>Created with Sketch.</desc>
    <defs>
        <polygon id="path-1" points="0.180298507 0.126268657 26.121791 0.126268657 26.121791 19.9820896 0.180298507 19.9820896"></polygon>
    </defs>
    <g id="Desktop" stroke="none" stroke-width="1" fill="none" fill-rule="evenodd">
        <g id="blog_landingpage" transform="translate(-117.000000, -28.000000)">
            <g id="Navbar">
                <g id="adidas-runtastic_logo_horizontal_cmyk_black" transform="translate(117.000000, 28.000000)">
                    <path d="M14.1026866,17.1307463 C14.1026866,16.3698507 14.7134328,15.7591045 15.4743284,15.7591045 C16.2355224,15.7591045 16.8462687,16.3698507 16.8462687,17.1307463 C16.8462687,17.8919403 16.2355224,18.5026866 15.4743284,18.5026866 C14.7134328,18.5026866 14.1026866,17.8919403 14.1026866,17.1307463 Z M19.6835821,17.1307463 C19.6835821,16.3698507 20.2943284,15.7591045 21.0555224,15.7591045 C21.8164179,15.7591045 22.4271642,16.3698507 22.4271642,17.1307463 C22.4271642,17.8919403 21.8164179,18.5026866 21.0555224,18.5026866 C20.2943284,18.5026866 19.6835821,17.8919403 19.6835821,17.1307463 Z M6.74597015,17.1307463 C6.74597015,16.3698507 7.35671642,15.7591045 8.11761194,15.7591045 C8.87880597,15.7591045 9.48955224,16.3698507 9.48955224,17.1307463 C9.48955224,17.8919403 8.87880597,18.5026866 8.11761194,18.5026866 C7.35671642,18.5026866 6.74597015,17.8919403 6.74597015,17.1307463 Z M1.16507463,17.1307463 C1.16507463,16.3698507 1.7758209,15.7591045 2.53671642,15.7591045 C3.29791045,15.7591045 3.90835821,16.3698507 3.90835821,17.1307463 C3.90835821,17.8919403 3.29791045,18.5026866 2.53671642,18.5026866 C1.7758209,18.5026866 1.16507463,17.8919403 1.16507463,17.1307463 Z M11.2558209,19.5080597 L12.4489552,19.5080597 L12.4489552,14.7071642 L11.2558209,14.7071642 L11.2558209,19.5080597 Z M3.89910448,19.5080597 L5.09223881,19.5080597 L5.09223881,14.7068657 L3.89910448,14.7068657 L3.89910448,15.0922388 C3.49522388,14.8101493 3.00656716,14.6504478 2.48059701,14.6504478 C1.10865672,14.6504478 0,15.7591045 0,17.1307463 C0,18.5119403 1.10865672,19.6113433 2.48059701,19.6113433 C3.00656716,19.6113433 3.49522388,19.4516418 3.89910448,19.1698507 L3.89910448,19.5080597 Z M22.4176119,19.5080597 L23.6110448,19.5080597 L23.6110448,14.7068657 L22.4176119,14.7068657 L22.4176119,15.0922388 C22.0137313,14.8101493 21.5253731,14.6504478 20.9991045,14.6504478 C19.6271642,14.6504478 18.5185075,15.7591045 18.5185075,17.1307463 C18.5185075,18.5119403 19.6271642,19.6113433 20.9991045,19.6113433 C21.5253731,19.6113433 22.0137313,19.4516418 22.4176119,19.1698507 L22.4176119,19.5080597 Z M24.0525373,17.9483582 C24.0901493,18.9161194 24.9170149,19.6020896 26.298209,19.6020896 C27.4256716,19.6020896 28.3555224,19.1134328 28.3555224,18.0328358 C28.3555224,17.281194 27.9328358,16.8397015 26.9558209,16.6516418 L26.1949254,16.5014925 C25.7059701,16.4074627 25.3680597,16.3134328 25.3680597,16.0220896 C25.3680597,15.7029851 25.6967164,15.561791 26.1101493,15.561791 C26.7116418,15.561791 26.9558209,15.8623881 26.9746269,16.2197015 L28.1773134,16.2197015 C28.1113433,15.28 27.3597015,14.6504478 26.1477612,14.6504478 C24.898209,14.6504478 24.1561194,15.3364179 24.1561194,16.2289552 C24.1561194,17.318806 25.0391045,17.4973134 25.8,17.638209 L26.4295522,17.7510448 C26.880597,17.8355224 27.0779104,17.9671642 27.0779104,18.2301493 C27.0779104,18.4650746 26.8525373,18.7 26.3167164,18.7 C25.5370149,18.7 25.2832836,18.2961194 25.2740299,17.9483582 L24.0525373,17.9483582 Z M9.48,13.0722388 L9.48,15.0922388 C9.0761194,14.8101493 8.58746269,14.6504478 8.06149254,14.6504478 C6.68955224,14.6504478 5.58089552,15.7591045 5.58089552,17.1307463 C5.58089552,18.5119403 6.68955224,19.6113433 8.06149254,19.6113433 C8.58746269,19.6113433 9.0761194,19.4516418 9.48,19.1698507 L9.48,19.5080597 L10.6731343,19.5080597 L10.6731343,13.0722388 L9.48,13.0722388 Z M16.8367164,13.0722388 L16.8367164,15.0922388 C16.4328358,14.8101493 15.9441791,14.6504478 15.418209,14.6504478 C14.0462687,14.6504478 12.9376119,15.7591045 12.9376119,17.1307463 C12.9376119,18.5119403 14.0462687,19.6113433 15.418209,19.6113433 C15.9441791,19.6113433 16.4328358,19.4516418 16.8367164,19.1698507 L16.8367164,19.5080597 L18.0301493,19.5080597 L18.0301493,13.0722388 L16.8367164,13.0722388 Z M3.10059701,11.6534328 L3.90835821,13.0722388 L9.48,13.0722388 L7.2719403,9.25731343 L3.10059701,11.6534328 Z M12.4489552,14.2653731 L12.4489552,13.0722388 L16.8367164,13.0722388 L12.1579104,4.97313433 L7.97671642,7.36895522 L11.2558209,13.0722388 L11.2558209,14.2653731 L12.4489552,14.2653731 Z M18.6125373,13.0722388 L24.1934328,13.0722388 L16.9776119,0.585373134 L12.8062687,2.99074627 L18.6125373,13.0722388 L18.6125373,13.0722388 Z" id="Fill-1" fill="#000000"></path>
                    <path d="M40.2877612,5.38686567 L40.2877612,9.31164179 L42.1247761,9.31164179 C43.8507463,9.31164179 44.6020896,8.5319403 44.6020896,7.39074627 C44.6020896,6.19432836 43.9898507,5.38686567 42.1247761,5.38686567 L40.2877612,5.38686567 Z M40.2877612,19.6101493 L34.8041791,19.6101493 L34.8041791,0.54358209 L43.4331343,0.54358209 C47.3576119,0.54358209 50.1967164,2.79820896 50.1967164,7.14029851 C50.1967164,9.78447761 48.6937313,12.0110448 46.1331343,13.0134328 L51.5325373,19.6101493 L44.5743284,19.6101493 L40.2877612,13.7370149 L40.2877612,19.6101493 L40.2877612,19.6101493 Z" id="Fill-2" fill="#000000"></path>
                    <path d="M51.4770149,11.7886567 L51.4770149,0.54358209 L56.9602985,0.54358209 L56.9602985,11.1483582 C56.9602985,13.681791 57.8791045,14.961791 59.938806,14.961791 C61.9707463,14.961791 62.8892537,13.681791 62.8892537,11.1483582 L62.8892537,0.54358209 L68.3725373,0.54358209 L68.3725373,11.7886567 C68.3725373,16.5761194 65.4779104,19.9441791 59.938806,19.9441791 C54.3997015,19.9441791 51.4770149,16.5761194 51.4770149,11.7886567" id="Fill-3" fill="#000000"></path>
                    <polyline id="Fill-4" fill="#000000" points="75.4976119 9.61761194 75.4976119 19.6101493 70.181194 19.6101493 70.181194 0.54358209 76.3883582 0.54358209 82.400597 10.7310448 82.400597 0.54358209 87.7167164 0.54358209 87.7167164 19.6101493 81.5098507 19.6101493 75.4976119 9.61761194"></polyline>
                    <polyline id="Fill-5" fill="#000000" points="94.3970149 19.6101493 94.3970149 5.38686567 89.1083582 5.38686567 89.1083582 0.54358209 105.168657 0.54358209 105.168657 5.38686567 99.8802985 5.38686567 99.8802985 19.6101493 94.3970149 19.6101493"></polyline>
                    <path d="M112.544776,5.9158209 L110.540597,12.401194 L114.521194,12.401194 L112.544776,5.9158209 Z M115.884776,16.8265672 L109.204776,16.8265672 L108.341493,19.6101493 L102.802687,19.6101493 L109.204776,0.54358209 L116.219104,0.54358209 L122.592836,19.6101493 L116.747761,19.6101493 L115.884776,16.8265672 L115.884776,16.8265672 Z" id="Fill-6" fill="#000000"></path>
                    <path d="M122.564776,13.5420896 L127.992537,13.5420896 C128.076119,14.6277612 128.716418,15.6853731 130.720299,15.6853731 C132.056418,15.6853731 132.919403,15.24 132.919403,14.4047761 C132.919403,13.5420896 131.722687,13.1802985 130.10806,12.7910448 C127.101791,12.0671642 122.787463,11.1764179 122.787463,6.38865672 C122.787463,2.63134328 125.710149,0.181492537 130.191642,0.181492537 C134.895522,0.181492537 137.679104,2.71492537 137.985373,6.77850746 L132.640896,6.77850746 C132.585373,5.8041791 132.251343,4.57970149 130.10806,4.57970149 C128.77194,4.57970149 128.187463,5.1638806 128.187463,5.83223881 C128.187463,7.02895522 129.718507,7.39074627 131.611045,7.8080597 C134.589254,8.47641791 138.430448,9.31164179 138.430448,13.820597 C138.430448,17.3277612 135.702687,19.9719403 130.581194,19.9719403 C125.626866,19.9719403 122.843284,17.6898507 122.564776,13.5420896" id="Fill-7" fill="#000000"></path>
                    <polyline id="Fill-8" fill="#000000" points="144.136418 19.6101493 144.136418 5.38686567 138.84806 5.38686567 138.84806 0.54358209 154.90806 0.54358209 154.90806 5.38686567 149.619701 5.38686567 149.619701 19.6101493 144.136418 19.6101493"></polyline>
                    <g id="Group-12" transform="translate(156.119403, 0.000000)">
                        <mask id="mask-2" fill="white">
                            <use xlink:href="#path-1"></use>
                        </mask>
                        <g id="Clip-10"></g>
                        <polygon id="Fill-9" fill="#151918" mask="url(#mask-2)" points="0.180298507 19.6101493 5.66358209 19.6101493 5.66358209 0.54358209 0.180298507 0.54358209"></polygon>
                        <path d="M12.7892537,10.0629851 C12.7892537,12.901791 14.8489552,14.878209 17.5486567,14.878209 C19.6361194,14.878209 21.1116418,13.7092537 21.9743284,12.2340299 L26.1220896,15.24 C24.3961194,17.9677612 21.6402985,20 17.3262687,20 C11.759403,20 7.19432836,15.7967164 7.19432836,10.0629851 C7.19432836,4.16179104 11.8426866,0.126268657 17.4095522,0.126268657 C21.3898507,0.126268657 24.2567164,1.90776119 26.0940299,4.88567164 L21.8074627,7.91970149 C20.8331343,6.22179104 19.4137313,5.27552239 17.4095522,5.27552239 C14.8208955,5.27552239 12.7892537,7.33522388 12.7892537,10.0629851" id="Fill-11" fill="#151918" mask="url(#mask-2)"></path>
                    </g>
                </g>
            </g>
        </g>
    </g>
</svg>