<svg width="68" height="62" viewBox="0 0 68 62" fill="none" xmlns="http://www.w3.org/2000/svg">
<g clip-path="url(#clip0)">
<path d="M67.5252 0.27071C67.1421 -0.0842145 66.5211 -0.0842145 66.1382 0.27071L62.5162 3.62548C61.8905 3.24706 61.1627 3.00136 60.3792 2.93198L38.8522 1.02476C37.4371 0.899184 36.0491 1.3614 35.044 2.29236L12.9577 22.7496C12.5747 23.1044 12.5747 23.6795 12.9577 24.0343C13.3408 24.3891 13.9618 24.3891 14.3447 24.0343L36.431 3.57716C37.0207 3.03103 37.835 2.76002 38.6654 2.83341L60.1923 4.7405C60.5049 4.76824 60.8012 4.84501 61.075 4.96017L58.1758 7.64541C57.5242 7.2745 56.7732 7.07567 55.9891 7.07567C54.8702 7.07567 53.8183 7.47927 53.0271 8.21201C51.3939 9.7247 51.3938 12.1863 53.0271 13.6991C53.8183 14.432 54.8702 14.8354 55.9891 14.8354C57.1079 14.8354 58.1598 14.4318 58.951 13.6991C60.3455 12.4075 60.5483 10.4249 59.5617 8.93106L62.4618 6.24485C62.5862 6.49842 62.6692 6.77306 62.699 7.06247L64.7581 27.0016C64.8375 27.7706 64.5449 28.5248 63.955 29.0709C63.955 29.0709 31.1961 59.4134 31.1588 59.448C30.0833 60.4441 28.2946 60.4429 27.2204 59.448C27.2204 59.448 3.68678 37.6503 3.63448 37.6018C2.55852 36.6052 2.56061 34.9486 3.63435 33.9539L11.1532 26.9897C11.5362 26.6349 11.5362 26.0598 11.1532 25.705C10.7701 25.3502 10.1491 25.3502 9.76617 25.705C9.76617 25.705 2.25011 32.6667 2.24736 32.6692C0.416526 34.365 0.417833 37.1919 2.24736 38.8865C2.24762 38.8866 25.8299 60.7294 25.8337 60.7329C27.6357 62.402 30.705 62.4383 32.5461 60.7329L65.3424 30.356C66.3476 29.425 66.8464 28.1394 66.7111 26.8286L64.652 6.88967C64.577 6.16384 64.3116 5.48971 63.9032 4.91028L67.5252 1.55551C67.9081 1.20059 67.9081 0.625392 67.5252 0.27071ZM57.5642 12.4145C56.7051 13.2103 55.2725 13.2095 54.4142 12.4145C53.5457 11.6101 53.5457 10.3012 54.4142 9.49693C55.0102 8.94486 55.9122 8.75305 56.7089 9.00444L55.2958 10.3135C54.9127 10.6683 54.9127 11.2435 55.2958 11.5981C55.6745 11.9488 56.3043 11.9489 56.6829 11.5981L58.0948 10.2903C58.3588 11.0112 58.1836 11.8408 57.5642 12.4145Z" fill="white"/>
<path d="M59.3687 23.9213C59.3687 23.9213 42.0022 7.83573 41.9896 7.8241C40.1598 6.12928 37.1049 6.13122 35.2772 7.8241C35.2772 7.8241 8.48009 32.6446 8.45473 32.6681C7.54938 33.5067 7.09716 34.6419 7.09729 35.777C7.09742 36.9123 7.55016 38.0475 8.45473 38.8854C8.45473 38.8854 25.8219 54.9715 25.8338 54.9825C27.6636 56.6774 30.7182 56.6759 32.5462 54.9825C32.5462 54.9825 59.3583 30.1481 59.3687 30.1386C61.199 28.4433 61.1976 25.6152 59.3687 23.9213ZM57.9816 28.8539C57.9816 28.8539 31.1977 53.6623 31.1591 53.6979C30.0833 54.6943 28.2947 54.6926 27.2207 53.6979C27.2207 53.6979 9.85584 37.6139 9.84159 37.6007C8.76667 36.6048 8.76771 34.9475 9.84172 33.9528C9.84172 33.9528 36.6272 9.14305 36.6642 9.10878C37.7399 8.11242 39.5279 8.11351 40.6025 9.10878C40.6025 9.10878 57.9515 25.1781 57.9816 25.2059C59.0512 26.1965 59.0478 27.8662 57.9816 28.8539Z" fill="white"/>
<path d="M39.0361 35.7551C36.7479 33.6358 33.3275 33.9356 31.0624 36.0335L31.0162 36.0764C28.7976 38.1313 28.4507 41.2782 30.7156 43.3762C33.0036 45.4955 36.4474 45.1743 38.6891 43.0978L38.7354 43.055C40.9542 40.9998 41.301 37.8529 39.0361 35.7551ZM36.6324 41.1924L36.5861 41.2353C35.3382 42.3913 33.6278 42.7765 32.5416 41.7704C31.5016 40.8071 31.802 39.1587 33.1193 37.9385L33.1656 37.8957C34.4136 36.7397 36.124 36.3544 37.2102 37.3606C38.2503 38.3239 37.9266 39.9937 36.6324 41.1924Z" fill="white"/>
<path d="M47.6802 28.5624C47.3565 28.2626 46.9173 28.1128 46.4784 28.2197L21.3788 31.8162C21.1014 31.8591 20.8009 31.966 20.5698 32.1801C20.0614 32.651 20.0614 33.3789 20.5699 33.85C20.8934 34.1497 21.3322 34.2995 21.7945 34.2139L46.8942 30.6175C47.1716 30.5746 47.472 30.4677 47.7032 30.2536C48.2116 29.7827 48.1885 29.0334 47.6802 28.5624Z" fill="white"/>
<path d="M37.534 19.0361C35.2458 16.9168 31.8251 17.2166 29.5603 19.3144L29.514 19.3573C27.2954 21.4124 26.9487 24.5592 29.2136 26.6571C31.5248 28.7978 34.9452 28.4554 37.1871 26.3788L37.2334 26.3359C39.4521 24.2809 39.822 21.1554 37.534 19.0361ZM35.1301 24.4735L35.0838 24.5163C33.8357 25.6724 32.1256 26.0576 31.0394 25.0514C29.9993 24.088 30.2999 22.4397 31.6172 21.2197L31.6635 21.1768C32.9114 20.021 34.6217 19.6356 35.708 20.6417C36.7481 21.605 36.4244 23.2746 35.1301 24.4735Z" fill="white"/>
</g>
<defs>
<clipPath id="clip0">
<rect x="0.875" width="66.9375" height="62" fill="white"/>
</clipPath>
</defs>
</svg>
