<svg width="71" height="66" viewBox="0 0 71 66" fill="none" xmlns="http://www.w3.org/2000/svg">
<g clip-path="url(#clip0)">
<path d="M43.4106 29.1753L52.5409 35.2924C52.9466 35.5643 53.4909 35.5643 53.8966 35.2924L63.0269 29.1753C64.9289 27.9074 66.064 25.8536 66.075 23.6599V10.6447C66.0757 10.2067 65.8002 9.81008 65.3737 9.63489L53.6862 4.88289C53.3908 4.76299 53.056 4.76299 52.7606 4.88289L41.0731 9.63489C40.6466 9.81008 40.3711 10.2067 40.3718 10.6447V23.6599C40.3809 25.8519 41.5122 27.9054 43.4106 29.1753ZM42.7 11.3674L53.2187 7.09169L63.7375 11.3674V23.6599C63.7289 25.1446 62.9589 26.5339 61.67 27.39L53.2187 33.0462L44.7675 27.3834C43.4802 26.5291 42.7102 25.1424 42.7 23.6599V11.3674Z" fill="white"/>
<path d="M50.0574 25.3V12.1M50.0574 12.1L47.7582 14.3M50.0574 12.1L52.3566 14.3" stroke="white" stroke-width="2" stroke-linecap="round"/>
<path d="M56.9549 12.1V25.3M56.9549 25.3L54.6558 23.1M56.9549 25.3L59.2541 23.1" stroke="white" stroke-width="2" stroke-linecap="round"/>
<path d="M2.9625 58.3008H4.13125V62.7008C4.13125 64.5234 5.70105 66.0008 7.6375 66.0008H14.65C16.5864 66.0008 18.1562 64.5234 18.1562 62.7008V58.3008H46.2062V62.7008C46.2062 64.5234 47.7761 66.0008 49.7125 66.0008H56.725C58.6614 66.0008 60.2312 64.5234 60.2312 62.7008V58.3008H61.4C62.691 58.3008 63.7375 57.3158 63.7375 56.1008V39.6008C63.7418 38.0066 63.0032 36.4908 61.7167 35.4538L65.7372 32.761C68.8706 30.6667 70.7374 27.2778 70.75 23.6607V7.75362C70.7507 7.31565 70.4753 6.91901 70.0487 6.74382L53.6862 0.0910231C53.3908 -0.0288762 53.056 -0.0288762 52.7606 0.0910231L36.3887 6.74382C35.9622 6.91901 35.6868 7.31565 35.6875 7.75362V12.1008H18.0043C15.5264 12.1016 13.3185 13.5731 12.4948 15.7726L5.61089 34.1822C2.75307 34.5781 0.632979 36.8821 0.625 39.6008V56.1008C0.625 57.3158 1.67153 58.3008 2.9625 58.3008ZM15.8187 62.7008C15.8187 63.3083 15.2955 63.8008 14.65 63.8008H7.6375C6.99202 63.8008 6.46875 63.3083 6.46875 62.7008V58.3008H15.8187V62.7008ZM11.1437 56.1008H8.80625V53.9008H11.1437V56.1008ZM57.8937 62.7008C57.8937 63.3083 57.3705 63.8008 56.725 63.8008H49.7125C49.067 63.8008 48.5437 63.3083 48.5437 62.7008V58.3008H57.8937V62.7008ZM55.5562 56.1008H53.2187V53.9008H55.5562V56.1008ZM38.025 8.47632L53.2187 2.29872L68.4125 8.47632V23.6563C68.4009 26.562 66.8997 29.2837 64.3815 30.9647L53.2187 38.448L42.056 30.968C39.5381 29.2873 38.0369 26.566 38.025 23.6607V8.47632ZM55.5562 40.7008C56.2017 40.7008 56.725 41.1933 56.725 41.8008V44.0008C56.725 44.6083 56.2017 45.1008 55.5562 45.1008H48.5437C47.8983 45.1008 47.375 44.6083 47.375 44.0008C47.375 42.1783 48.9448 40.7008 50.8812 40.7008H55.5562ZM35.6875 18.7008V20.9008H27.5062V18.7008H35.6875ZM35.6875 16.5008H33.35V14.3008H35.6875V16.5008ZM14.7003 16.5008C15.1953 15.1829 16.519 14.3015 18.0043 14.3008H31.0125V16.5008H27.5062C26.2153 16.5008 25.1687 17.4858 25.1687 18.7008V20.9008C25.1687 22.1159 26.2153 23.1008 27.5062 23.1008H35.6875V23.6607C35.7001 27.2778 37.5669 30.6667 40.7003 32.761L42.7 34.1008H8.11902L14.7003 16.5008ZM2.9625 39.6008C2.9625 37.7783 4.5323 36.3008 6.46875 36.3008H45.9842L49.5161 38.668C46.8951 39.2607 45.0449 41.4638 45.0375 44.0008C45.0375 45.8234 46.6073 47.3008 48.5437 47.3008H55.5562C57.4927 47.3008 59.0625 45.8234 59.0625 44.0008V41.8008C59.0587 40.442 58.1703 39.2243 56.8243 38.7329L59.7182 36.7936C60.7663 37.384 61.4057 38.4512 61.4 39.6008L61.4 56.1008H57.8937V53.9008C57.8937 52.6858 56.8472 51.7008 55.5562 51.7008H53.2187C51.9278 51.7008 50.8812 52.6858 50.8812 53.9008V56.1008H13.4812V53.9008C13.4812 52.6858 12.4347 51.7008 11.1437 51.7008H8.80625C7.51528 51.7008 6.46875 52.6858 6.46875 53.9008V56.1008H2.9625V39.6008Z" fill="white"/>
<path d="M21.6624 16.5H19.6627C18.1769 16.5016 16.8527 17.3824 16.3551 18.7L11.9677 30.4348C11.7534 31.008 12.0733 31.6362 12.6823 31.8379C13.2914 32.0395 13.9588 31.7384 14.1731 31.1652L18.5606 19.4348C18.7252 18.9946 19.1669 18.7001 19.6627 18.7H21.6624C22.3079 18.7 22.8312 18.2075 22.8312 17.6C22.8312 16.9925 22.3079 16.5 21.6624 16.5Z" fill="white"/>
<path d="M8.80627 47.3H15.8188C17.7552 47.3 19.325 45.8225 19.325 44C19.3212 40.9639 16.7071 38.5036 13.4813 38.5H8.80627C6.86982 38.5 5.30002 39.9775 5.30002 41.8V44C5.30002 45.8225 6.86982 47.3 8.80627 47.3ZM7.63752 41.8C7.63752 41.1925 8.16079 40.7 8.80627 40.7H13.4813C15.4177 40.7 16.9875 42.1775 16.9875 44C16.9875 44.6075 16.4643 45.1 15.8188 45.1H8.80627C8.16079 45.1 7.63752 44.6075 7.63752 44V41.8Z" fill="white"/>
<path d="M23.9999 53.9H40.3624C41.6534 53.9 42.7 52.915 42.7 51.7V47.3C42.7 46.0849 41.6534 45.1 40.3624 45.1H23.9999C22.709 45.1 21.6624 46.0849 21.6624 47.3V51.7C21.6624 52.915 22.709 53.9 23.9999 53.9ZM23.9999 47.3H40.3624V51.7H23.9999V47.3Z" fill="white"/>
</g>
<defs>
<clipPath id="clip0">
<rect x="0.625" width="70.125" height="66" fill="white"/>
</clipPath>
</defs>
</svg>
