<?xml version="1.0" encoding="iso-8859-1"?>
<svg fill="#fff" version="1.1" id="Layer_1" xmlns="http://www.w3.org/2000/svg" xmlns:xlink="http://www.w3.org/1999/xlink" x="0px" y="0px"
	 viewBox="0 0 511.999 511.999" style="enable-background:new 0 0 511.999 511.999;" xml:space="preserve">
<g>
	<g>
		<g>
			<path d="M377.485,50.06C344.627,17.442,300.984-0.357,254.711,0.005C160.124,0.697,83.346,78.23,83.559,172.839
				c0.099,43.938,16.732,85.751,46.835,117.739c32.348,34.374,50.162,78.539,50.162,124.423c0,0.351,0.053,29.664,0.053,29.664
				c0,13.357,10.867,24.224,24.224,24.224h8.057v18.887c0,13.357,10.867,24.224,24.224,24.224h37.773
				c13.357,0,24.224-10.867,24.224-24.224v-18.887h8.057c13.357,0,24.224-10.867,24.224-24.224c0,0,0.052-29.385,0.052-29.733
				c0-46.229,17.559-90.121,49.44-123.591c30.667-32.195,47.557-74.421,47.557-118.9C428.44,126.142,410.344,82.68,377.485,50.06z
				 M277.554,487.776c0,1.471-1.196,2.669-2.669,2.669h-37.773c-1.471,0-2.669-1.196-2.669-2.669V468.89h43.11V487.776z
				 M307.167,447.335H204.832c-1.471,0-2.669-1.196-2.669-2.669v-18.887h107.671v18.887h0.001
				C309.835,446.137,308.639,447.335,307.167,447.335z M242.622,327.704l-32.074-120.791c3.745,1.761,8.66,3.315,15.717,3.315
				c10.331,0,16.077-3.332,20.273-5.766c3.175-1.842,4.924-2.856,9.458-2.856c4.535,0,6.284,1.014,9.461,2.856
				c4.196,2.434,9.941,5.766,20.275,5.766c7.06,0,11.977-1.556,15.722-3.317l-32.076,120.793H242.622z M266.777,349.259v54.966
				h-21.555v-54.966H266.777z M365.275,276.475c-33.234,34.889-52.575,79.883-55.104,127.749h-21.84v-63.914l38.386-144.559
				c0.716-2.693,0.334-5.414-0.853-7.708c-1.23-4.599-5.414-7.99-10.4-7.99c-10.332,0-16.079,3.332-20.275,5.766
				c-3.176,1.842-4.926,2.856-9.461,2.856c-4.534,0-6.284-1.014-9.461-2.856c-4.196-2.434-9.941-5.766-20.275-5.766
				c-10.331,0-16.077,3.332-20.273,5.766c-3.175,1.842-4.924,2.856-9.458,2.856c-4.533,0-6.282-1.014-9.456-2.856
				c-4.196-2.434-9.941-5.766-20.273-5.766c-4.987,0-9.171,3.392-10.4,7.99c-1.187,2.295-1.568,5.015-0.852,7.708l38.385,144.559
				v63.914h-21.845c-2.565-47.46-22.126-92.707-55.731-128.417c-26.338-27.988-40.89-64.573-40.977-103.016
				C104.928,90.006,172.108,22.164,254.87,21.559c40.567-0.285,78.681,15.258,107.43,43.798
				c28.752,28.542,44.587,66.573,44.587,107.084C406.885,211.359,392.108,248.305,365.275,276.475z"/>
			<path d="M362.209,98.712c-14.77-21.217-35.245-37.386-59.213-46.765c-5.542-2.168-11.795,0.566-13.963,6.11
				c-2.168,5.543,0.567,11.795,6.11,13.963c41.052,16.062,68.634,56.417,68.634,100.42c0,5.952,4.825,10.778,10.778,10.778
				c5.953,0,10.778-4.825,10.778-10.778C385.33,145.936,377.335,120.441,362.209,98.712z"/>
			<path d="M256,43.111c-0.013,0-0.026,0-0.039,0l-0.895,0.003c-5.952,0.022-10.76,4.864-10.74,10.815
				c0.022,5.94,4.842,10.74,10.776,10.74c0.013,0,0.026,0,0.039,0l0.895-0.003c5.952-0.022,10.76-4.864,10.74-10.815
				C266.756,47.911,261.935,43.111,256,43.111z"/>
		</g>
	</g>
</g>
</svg>
