<svg xmlns="http://www.w3.org/2000/svg" version="1.1" xmlns:xlink="http://www.w3.org/1999/xlink" height="99.5260009765625" width="259.0299987792969">
	<defs id="SvgjsDefs2688"></defs>
	<g id="SvgjsG2689" rel="mainfill" name="main_text" xmlns:name="main_text" transform="translate(-3.799999952316284,-149.3040008544922)" fill="#ffffff">
		<path
			d="M37.14 241.99Q34.75 241.99 33.16 241.44Q31.57 240.88 30.65 239.74Q29.72 238.59 29.34 236.78Q28.97 234.97 28.97 232.49L28.97 215.49L17.93 240L17.04 240L5.56 215.05L5.56 240L3.80 240L3.80 210.86L7.99 210.86L18.59 233.82L28.97 210.86L32.94 210.86L32.94 232.49Q32.94 236.51 33.96 238.81Q34.97 241.10 37.14 241.10L37.14 241.99ZM54.98 229.62Q54.98 227.72 54.58 226.07Q54.18 224.41 53.45 223.20Q52.72 221.98 51.71 221.28Q50.69 220.57 49.46 220.57Q48.22 220.57 47.20 221.28Q46.19 221.98 45.46 223.20Q44.73 224.41 44.33 226.07Q43.94 227.72 43.94 229.62Q43.94 231.52 44.33 233.18Q44.73 234.83 45.46 236.05Q46.19 237.26 47.20 237.97Q48.22 238.68 49.46 238.68Q50.69 238.68 51.71 237.97Q52.72 237.26 53.45 236.05Q54.18 234.83 54.58 233.18Q54.98 231.52 54.98 229.62M39.74 229.62Q39.74 227.37 40.38 225.41Q41.02 223.44 42.28 221.98Q43.54 220.53 45.33 219.67Q47.12 218.80 49.46 218.80Q51.75 218.80 53.56 219.67Q55.37 220.53 56.63 221.98Q57.89 223.44 58.53 225.41Q59.17 227.37 59.17 229.62Q59.17 231.88 58.53 233.84Q57.89 235.81 56.63 237.26Q55.37 238.72 53.56 239.58Q51.75 240.44 49.46 240.44Q47.12 240.44 45.33 239.58Q43.54 238.72 42.28 237.26Q41.02 235.81 40.38 233.84Q39.74 231.88 39.74 229.62ZM65.00 224.54Q65.00 222.56 64.45 221.34Q63.90 220.13 61.91 220.13L61.03 220.13L61.03 219.25L65.00 219.25Q66.68 219.25 67.54 219.71Q68.40 220.17 68.75 221.01L68.97 221.01Q69.81 220.17 71.27 219.49Q72.73 218.80 74.71 218.80Q76.13 218.80 77.47 219.14Q78.82 219.47 79.88 220.37Q80.94 221.28 81.58 222.82Q82.22 224.37 82.22 226.75L82.22 240L78.25 240L78.25 226.75Q78.25 225.12 77.83 223.97Q77.41 222.82 76.72 222.12Q76.04 221.41 75.18 221.10Q74.32 220.79 73.39 220.79Q72.07 220.79 70.94 221.50Q69.81 222.20 68.97 223.13L68.97 240L65.00 240L65.00 224.54ZM104.74 230.29L91.36 230.29Q91.36 232.10 91.76 233.64Q92.16 235.19 92.93 236.31Q93.70 237.44 94.81 238.06Q95.91 238.68 97.32 238.68Q99.49 238.68 100.92 237.75Q102.36 236.82 103.51 235.14L104.39 235.81Q102.89 238.32 100.92 239.38Q98.96 240.44 96.44 240.44Q94.10 240.44 92.38 239.58Q90.66 238.72 89.49 237.26Q88.32 235.81 87.74 233.84Q87.17 231.88 87.17 229.62Q87.17 227.37 87.76 225.41Q88.36 223.44 89.51 221.98Q90.66 220.53 92.29 219.67Q93.92 218.80 96.00 218.80Q100.50 218.80 102.67 221.32Q104.83 223.84 104.83 228.52L104.74 230.29M100.64 228.52Q100.64 224.68 99.49 222.62Q98.34 220.57 96.00 220.57Q94.98 220.57 94.14 221.17Q93.31 221.76 92.69 222.82Q92.07 223.88 91.72 225.34Q91.36 226.80 91.36 228.52L100.64 228.52ZM118.21 240.44L111.14 223.22Q110.48 221.54 109.22 220.70Q107.97 219.86 106.29 219.69L106.29 218.80L110.04 218.80Q112.03 218.80 113.33 219.73Q114.63 220.66 115.34 222.34L120.37 234.57L125.94 219.25L128.15 219.25L119.53 242.87Q118.87 244.68 118.14 245.85Q117.42 247.02 116.60 247.68Q115.78 248.35 114.81 248.59Q113.84 248.83 112.69 248.83L111.37 248.83L111.37 247.51Q112.34 247.51 113.22 247.31Q114.10 247.11 114.83 246.60Q115.56 246.09 116.18 245.19Q116.80 244.28 117.33 242.87L118.21 240.44ZM158.66 240Q157.91 240.22 156.89 240.22Q156.14 240.22 155.15 240.04Q154.15 239.87 153.12 239.27Q152.08 238.68 151.09 237.53Q150.09 236.38 149.39 234.48L148.28 231.61L135.92 231.61L132.38 240L130.40 240L142.76 210.86L144.09 210.86L153.80 234.48Q154.33 235.72 154.79 236.58Q155.26 237.44 155.83 237.97Q156.41 238.50 157.07 238.76Q157.73 239.03 158.66 239.12L158.66 240M136.58 229.84L147.40 229.84L142.10 217.04L136.58 229.84ZM165.28 221.01Q166.12 220.17 167.58 219.49Q169.04 218.80 171.02 218.80Q172.70 218.80 174.09 219.42Q175.48 220.04 176.32 221.90Q177.47 220.39 179.28 219.60Q181.09 218.80 182.94 218.80Q184.18 218.80 185.31 219.14Q186.43 219.47 187.27 220.37Q188.11 221.28 188.62 222.82Q189.13 224.37 189.13 226.75L189.13 240L185.15 240L185.15 226.75Q185.15 223.44 184.23 222.12Q183.30 220.79 181.62 220.79Q180.96 220.79 180.27 221.06Q179.59 221.32 178.97 221.74Q178.35 222.16 177.82 222.67Q177.29 223.18 176.98 223.66Q177.16 224.15 177.18 225.12Q177.20 226.09 177.20 226.75L177.20 240L173.23 240L173.23 226.75Q173.23 223.44 172.30 222.12Q171.38 220.79 169.70 220.79Q168.37 220.79 167.25 221.50Q166.12 222.20 165.28 223.13L165.28 240L161.31 240L161.31 224.54Q161.31 222.56 160.76 221.34Q160.20 220.13 158.22 220.13L157.33 220.13L157.33 219.25L161.31 219.25Q162.99 219.25 163.85 219.71Q164.71 220.17 165.06 221.01L165.28 221.01ZM212.57 240L210.37 240L208.82 238.23L208.60 238.23Q207.76 239.07 206.30 239.76Q204.85 240.44 202.86 240.44Q201.45 240.44 200.10 240.11Q198.75 239.78 197.69 238.87Q196.63 237.97 195.99 236.42Q195.35 234.88 195.35 232.49L195.35 224.54Q195.35 222.56 194.80 221.34Q194.25 220.13 192.26 220.13L191.82 220.13L191.82 219.25L195.35 219.25Q196.50 219.25 197.27 219.44Q198.05 219.64 198.51 220.24Q198.97 220.84 199.15 221.87Q199.33 222.91 199.33 224.54L199.33 232.49Q199.33 234.17 199.75 235.30Q200.17 236.42 200.85 237.13Q201.54 237.84 202.40 238.15Q203.26 238.45 204.18 238.45Q205.51 238.45 206.64 237.75Q207.76 237.04 208.60 236.11L208.60 219.25L212.57 219.25L212.57 240ZM223.08 240L219.11 240L219.11 216.15Q219.11 214.17 218.56 212.95Q218.01 211.74 216.02 211.74L215.14 211.74L215.14 210.86L219.11 210.86Q220.26 210.86 221.03 211.05Q221.80 211.25 222.27 211.85Q222.73 212.45 222.91 213.48Q223.08 214.52 223.08 216.15L223.08 240ZM246.00 230.29L232.62 230.29Q232.62 232.10 233.02 233.64Q233.42 235.19 234.19 236.31Q234.96 237.44 236.07 238.06Q237.17 238.68 238.58 238.68Q240.75 238.68 242.18 237.75Q243.62 236.82 244.77 235.14L245.65 235.81Q244.15 238.32 242.18 239.38Q240.22 240.44 237.70 240.44Q235.36 240.44 233.64 239.58Q231.92 238.72 230.75 237.26Q229.58 235.81 229.00 233.84Q228.43 231.88 228.43 229.62Q228.43 227.37 229.02 225.41Q229.62 223.44 230.77 221.98Q231.92 220.53 233.55 219.67Q235.18 218.80 237.26 218.80Q241.76 218.80 243.93 221.32Q246.09 223.84 246.09 228.52L246.00 230.29M241.90 228.52Q241.90 224.68 240.75 222.62Q239.60 220.57 237.26 220.57Q236.24 220.57 235.40 221.17Q234.57 221.76 233.95 222.82Q233.33 223.88 232.98 225.34Q232.62 226.80 232.62 228.52L241.90 228.52ZM252.01 221.01L248.92 221.01L248.92 219.25L252.01 219.25L252.01 215.27L254.22 212.62L255.98 212.62L255.98 219.25L261.28 219.25L261.28 221.01L255.98 221.01L255.98 234.70Q255.98 238.68 259.07 238.68Q260.22 238.68 260.97 238.41Q261.72 238.15 262.38 237.79L262.83 238.68Q262.47 238.94 262.01 239.25Q261.55 239.56 260.88 239.82Q260.22 240.09 259.34 240.26Q258.45 240.44 257.31 240.44Q254.97 240.44 253.49 239.07Q252.01 237.70 252.01 234.70L252.01 221.01Z"
			fill="#ffffff"
			style="fill: rgb(255, 255, 255);"></path>
	</g>
	<g id="SvgjsG2690" rel="mainfill" name="symbol" xmlns:name="symbol_mainfill" transform="translate(89.51499938964844,-16.72239990234375) scale(0.8)" fill="#ffffff">
		<path
			d="M57.219,75.248h2.159v-4.879h-2.159V75.248z M51.938,75.248h2.159v-4.879h-2.159V75.248z M45.563,75.248h2.159v-4.879  h-2.159V75.248z M12.962,75.248h2.159v-4.879h-2.159V75.248z M22.432,75.248h2.159v-4.879h-2.159V75.248z M17.151,75.248h2.159  v-4.879h-2.159V75.248z M28.805,75.248h2.159v-4.879h-2.159V75.248z M37.185,75.248h2.159v-4.879h-2.159V75.248z M61.407,75.248  h2.159v-4.879h-2.159V75.248z M19.31,41.268h-2.159v4.878h2.159V41.268z M24.59,41.268h-2.159v4.878h2.159V41.268z M15.121,41.268  h-2.159v4.878h2.159V41.268z M63.566,41.268h-2.159v4.878h2.159V41.268z M47.723,41.268h-2.159v4.878h2.159V41.268z M54.097,41.268  h-2.159v4.878h2.159V41.268z M30.964,41.268h-2.159v4.878h2.159V41.268z M59.378,41.268h-2.159v4.878h2.159V41.268z M39.344,41.268  h-2.159v4.878h2.159V41.268z M70.849,29.786l-4.437,2.031l0.898,1.963l4.437-2.03L70.849,29.786z M69.106,25.978l-4.438,2.03  l0.898,1.963l4.437-2.03L69.106,25.978z M73.047,34.588l-4.437,2.031l0.898,1.963l4.437-2.031L73.047,34.588z M89.267,70.028  l-4.438,2.03l0.898,1.964l4.438-2.031L89.267,70.028z M87.523,66.221l-4.437,2.028l0.897,1.963l4.438-2.028L87.523,66.221z   M70.628,20.903l-10.796,4.94l5.459,11.928H8.981v11.873h3.98v7.534H5v11.875h3.981v9.692h58.565V66.871h-3.98v-7.533h7.961v-7.938  l12.677,27.698L95,74.157L70.628,20.903z M11.141,47.486V39.93h54.247v7.532H12.962v0.023H11.141z M8.981,66.895H7.16v-7.557h54.248  v7.533H8.981V66.895z M65.388,69.03v7.557H11.141v-7.533h52.426V69.03H65.388z M69.368,57.179H15.121v-7.534h52.426v-0.023h1.821  V57.179z M67.547,47.462v-4.762l2.179,4.762H67.547z M62.693,26.908l6.87-3.144L92.14,73.092l-6.871,3.145L62.693,26.908z   M82.673,55.623l-4.436,2.028l0.897,1.963l4.437-2.028L82.673,55.623z M85.325,61.417l-4.437,2.031l0.897,1.963l4.438-2.03  L85.325,61.417z M79.186,48.003l-4.437,2.03l0.898,1.963l4.437-2.031L79.186,48.003z M75.698,40.384l-4.436,2.03l0.898,1.963  l4.436-2.03L75.698,40.384z M57.426,65.556h2.159v-4.879h-2.159V65.556z M24.825,65.556h2.159v-4.879h-2.159V65.556z M18.451,65.556  h2.159v-4.879h-2.159V65.556z M33.204,65.556h2.159v-4.879h-2.159V65.556z M8.981,65.556h2.159v-4.879H8.981V65.556z M13.17,65.556  h2.159v-4.879H13.17V65.556z M53.237,65.556h2.159v-4.879h-2.159V65.556z M41.583,65.556h2.159v-4.879h-2.159V65.556z   M47.957,65.556h2.159v-4.879h-2.159V65.556z M55.919,55.84h2.158v-4.88h-2.158V55.84z M49.544,55.84h2.16v-4.88h-2.16V55.84z   M61.199,55.84h2.159v-4.88h-2.159V55.84z M65.388,55.84h2.159v-4.88h-2.159V55.84z M26.412,55.84h2.159v-4.88h-2.159V55.84z   M21.131,55.84h2.159v-4.88h-2.159V55.84z M16.943,55.84h2.159v-4.88h-2.159V55.84z M32.786,55.84h2.159v-4.88h-2.159V55.84z   M41.166,55.84h2.159v-4.88h-2.159V55.84z"
			fill="#ffffff"
			style="fill: rgb(255, 255, 255);"></path>
	</g>
</svg>
