<svg xmlns="http://www.w3.org/2000/svg" version="1.1" xmlns:xlink="http://www.w3.org/1999/xlink" xmlns:svgjs="http://svgjs.com/svgjs" height="103.49799728393555" width="261.5199890136719"><defs id="SvgjsDefs1006"></defs><g id="SvgjsG1007" rel="mainfill" name="main_text" xmlns:name="main_text" transform="translate(-0.3800000250339508,-137.0220069885254)" fill="#ffffff"><path d="M28.31 237.23Q28.48 238.10 29.10 238.60Q29.73 239.10 30.52 239.10L31.35 239.10L31.35 240L23.44 240L23.44 239.14L24.26 239.14Q24.68 239.14 24.99 238.81Q25.30 238.48 25.30 238.06L25.30 238.00L23.88 222.06L17.21 236.85Q16.94 237.44 16.73 238.06Q16.52 238.62 16.33 239.26Q16.14 239.90 16.07 240.48L15.35 240.48L7.05 222.54L5.67 238.00L5.67 238.06Q5.67 238.48 5.98 238.81Q6.29 239.14 6.71 239.14L7.50 239.14L7.50 240L0.38 240L0.38 239.10L1.21 239.10Q2.00 239.10 2.63 238.60Q3.25 238.10 3.42 237.23L5.98 215.32L6.71 215.32L15.93 235.30L24.99 215.32L25.72 215.32L28.31 237.23ZM44.87 218.78Q47.29 218.78 49.39 219.57Q51.50 220.37 53.09 221.80Q54.68 223.24 55.60 225.22Q56.51 227.21 56.51 229.63Q56.51 232.05 55.60 234.04Q54.68 236.02 53.09 237.46Q51.50 238.89 49.39 239.69Q47.29 240.48 44.87 240.48Q42.45 240.48 40.32 239.69Q38.19 238.89 36.60 237.46Q35.01 236.02 34.10 234.04Q33.18 232.05 33.18 229.63Q33.18 227.21 34.10 225.22Q35.01 223.24 36.60 221.80Q38.19 220.37 40.32 219.57Q42.45 218.78 44.87 218.78M44.87 238.89Q46.66 238.89 48.22 238.22Q49.77 237.55 50.93 236.34Q52.09 235.13 52.75 233.42Q53.40 231.70 53.40 229.63Q53.40 227.56 52.75 225.85Q52.09 224.13 50.93 222.92Q49.77 221.71 48.22 221.04Q46.66 220.37 44.87 220.37Q43.07 220.37 41.50 221.04Q39.92 221.71 38.76 222.92Q37.61 224.13 36.95 225.85Q36.29 227.56 36.29 229.63Q36.29 231.70 36.95 233.42Q37.61 235.13 38.76 236.34Q39.92 237.55 41.50 238.22Q43.07 238.89 44.87 238.89ZM83.41 219.33L83.41 220.23L82.58 220.23Q81.92 220.23 81.47 220.64Q81.02 221.06 80.95 221.65L80.95 235.96Q80.95 236.75 81.00 237.56Q81.06 238.38 81.12 239.03Q81.19 239.79 81.30 240.52L80.54 240.52L63.43 224.31L63.43 237.65Q63.50 238.27 63.95 238.70Q64.40 239.14 65.02 239.14L65.88 239.14L65.88 240.03L58.97 240.03L58.97 239.14L59.83 239.14Q60.45 239.14 60.92 238.70Q61.39 238.27 61.42 237.65L61.42 223.27Q61.42 222.44 61.35 221.63Q61.28 220.82 61.22 220.19Q61.11 219.47 61.01 218.78L61.84 218.78L78.91 234.85L78.91 221.58Q78.84 220.99 78.39 220.57Q77.94 220.16 77.32 220.16L76.46 220.16L76.46 219.26L83.41 219.33ZM100.20 240.17L86.07 240.17L86.07 239.27L86.83 239.27Q87.52 239.27 87.97 238.82Q88.42 238.38 88.45 237.72L88.45 221.75Q88.45 221.13 87.99 220.70Q87.52 220.26 86.83 220.26L86.07 220.26L86.07 219.36L96.20 219.36Q96.68 219.36 97.27 219.30Q97.85 219.23 98.42 219.12Q98.99 219.02 99.46 218.90Q99.93 218.78 100.20 218.67L100.20 223.20L99.27 223.20L99.27 222.41Q99.27 221.82 98.87 221.40Q98.48 220.99 97.85 220.95L91.18 220.95L91.18 228.90L96.64 228.90Q97.20 228.87 97.47 228.54Q97.75 228.21 97.75 227.76L97.75 227.04L98.68 227.04L98.68 232.33L97.75 232.33L97.75 231.60Q97.75 231.15 97.49 230.84Q97.23 230.53 96.71 230.46L91.22 230.46L91.22 238.41L96.16 238.41Q97.30 238.38 98.11 238.08Q98.93 237.79 99.51 237.30Q100.10 236.82 100.53 236.13Q100.97 235.44 101.31 234.64L102.28 234.64L100.20 240.17ZM125.92 219.26L125.92 220.19L125.20 220.19Q124.30 220.19 123.57 220.68Q122.84 221.16 122.36 221.78L115.97 231.46L115.97 237.58Q116.00 238.20 116.48 238.65Q116.97 239.10 117.66 239.10L118.32 239.10L118.32 240L110.85 240L110.85 239.10L111.51 239.10Q112.20 239.10 112.67 238.65Q113.13 238.20 113.20 237.58L113.20 231.46L107.01 221.78Q106.53 221.06 105.82 220.63Q105.11 220.19 104.21 220.19L103.52 220.19L103.52 219.26L111.89 219.26L111.89 220.19L111.23 220.19Q110.78 220.19 110.52 220.45Q110.26 220.71 110.26 221.09Q110.26 221.16 110.28 221.25Q110.30 221.33 110.30 221.40L114.93 229.63L119.87 221.40Q119.94 221.20 119.94 221.06Q119.94 220.68 119.68 220.44Q119.42 220.19 118.97 220.19L118.32 220.19L118.32 219.26L125.92 219.26ZM147.39 237.10L147.39 237.06Q147.87 238.13 148.63 238.58Q149.39 239.03 150.08 239.03L150.67 239.03L150.67 239.93L142.48 239.93L142.48 239.03L143.07 239.03Q143.52 239.03 143.86 238.76Q144.21 238.48 144.21 237.93Q144.21 237.61 144.10 237.30L141.99 231.74L133.32 231.74L131.11 237.34L131.11 237.30Q131.00 237.68 131.00 237.93Q131.00 238.48 131.37 238.77Q131.73 239.07 132.18 239.07L132.77 239.07L132.77 239.97L125.40 239.97L125.40 239.07L125.99 239.07Q126.68 239.07 127.44 238.62Q128.20 238.17 128.69 237.13L128.65 237.13L136.33 218.98Q136.67 218.22 136.95 217.53Q137.19 216.94 137.38 216.32Q137.57 215.70 137.57 215.32L138.33 215.32L147.39 237.10M141.41 230.15L137.74 220.40L133.91 230.15L141.41 230.15ZM177.42 237.55L177.42 237.51Q177.56 238.31 178.15 238.72Q178.74 239.14 179.46 239.14L180.26 239.14L180.26 240.03L172.69 240.03L172.69 239.17L173.48 239.17Q173.86 239.17 174.14 238.93Q174.42 238.69 174.42 238.31L174.42 238.17Q173.97 234.82 173.57 231.72Q173.17 228.63 172.76 225.24L166.85 236.92Q166.85 236.96 166.69 237.30Q166.54 237.65 166.33 238.17Q166.12 238.69 165.91 239.31Q165.71 239.93 165.60 240.52L164.88 240.52L157.10 225.55L155.68 238.13L155.72 238.13Q155.68 238.17 155.68 238.20Q155.68 238.58 155.98 238.86Q156.27 239.14 156.65 239.14L157.44 239.14L157.44 240L150.67 240L150.67 239.10L151.43 239.10Q152.23 239.10 152.80 238.67Q153.37 238.24 153.47 237.44L156.10 218.78L156.86 218.78L165.57 235.54L173.97 218.78L174.73 218.78L177.42 237.55ZM203.38 219.19L203.38 220.12L202.59 220.12Q202.07 220.12 201.69 220.44Q201.31 220.75 201.27 221.23L201.27 232.57Q201.27 234.40 200.67 235.85Q200.06 237.30 198.94 238.32Q197.82 239.34 196.21 239.90Q194.60 240.45 192.60 240.45Q188.55 240.45 186.24 238.38Q183.92 236.30 183.92 232.64L183.92 221.30Q183.85 220.82 183.49 220.47Q183.13 220.12 182.57 220.12L181.81 220.12L181.81 219.19L188.76 219.19L188.76 220.12L187.97 220.12Q187.45 220.12 187.07 220.47Q186.69 220.82 186.65 221.30L186.65 232.19Q186.65 235.33 188.23 237.15Q189.80 238.96 192.56 238.96Q195.64 238.96 197.37 237.27Q199.10 235.58 199.10 232.60L199.10 221.30Q199.06 220.82 198.68 220.49Q198.30 220.16 197.78 220.16L196.99 220.16L196.99 219.26L203.38 219.19ZM222.39 234.75L220.35 240.07L206.22 240.07L206.22 239.17L206.98 239.17Q207.67 239.17 208.12 238.72Q208.57 238.27 208.60 237.61L208.60 221.75Q208.57 221.13 208.07 220.68Q207.56 220.23 206.87 220.23L206.18 220.23L206.18 219.30L213.72 219.30L213.72 220.23L213.03 220.23Q212.33 220.23 211.83 220.68Q211.33 221.13 211.30 221.75L211.30 238.41L216.24 238.41Q217.35 238.38 218.16 238.08Q218.97 237.79 219.58 237.29Q220.18 236.79 220.61 236.11Q221.04 235.44 221.39 234.61L222.39 234.75ZM238.88 240.17L224.74 240.17L224.74 239.27L225.50 239.27Q226.20 239.27 226.64 238.82Q227.09 238.38 227.13 237.72L227.13 221.75Q227.13 221.13 226.66 220.70Q226.20 220.26 225.50 220.26L224.74 220.26L224.74 219.36L234.87 219.36Q235.35 219.36 235.94 219.30Q236.53 219.23 237.10 219.12Q237.67 219.02 238.14 218.90Q238.60 218.78 238.88 218.67L238.88 223.20L237.95 223.20L237.95 222.41Q237.95 221.82 237.55 221.40Q237.15 220.99 236.53 220.95L229.86 220.95L229.86 228.90L235.32 228.90Q235.87 228.87 236.15 228.54Q236.43 228.21 236.43 227.76L236.43 227.04L237.36 227.04L237.36 232.33L236.43 232.33L236.43 231.60Q236.43 231.15 236.17 230.84Q235.91 230.53 235.39 230.46L229.89 230.46L229.89 238.41L234.84 238.41Q235.98 238.38 236.79 238.08Q237.60 237.79 238.19 237.30Q238.78 236.82 239.21 236.13Q239.64 235.44 239.99 234.64L240.95 234.64L238.88 240.17ZM257.86 219.23Q258.34 219.23 258.93 219.16Q259.52 219.09 260.09 218.98Q260.66 218.88 261.14 218.76Q261.62 218.64 261.90 218.53L261.90 223.06L260.97 223.06L260.97 222.27Q260.97 221.68 260.57 221.27Q260.17 220.85 259.55 220.82L253.78 220.82L253.78 237.58Q253.81 238.20 254.30 238.65Q254.78 239.10 255.47 239.10L256.16 239.10L256.16 240L248.66 240L248.66 239.10L249.35 239.10Q250.05 239.10 250.51 238.65Q250.98 238.20 251.05 237.55L251.05 220.82L245.24 220.82Q244.62 220.85 244.24 221.27Q243.86 221.68 243.86 222.27L243.86 223.06L242.89 223.06L242.89 218.53Q243.17 218.64 243.65 218.76Q244.13 218.88 244.70 218.98Q245.28 219.09 245.86 219.16Q246.45 219.23 246.93 219.23L257.86 219.23Z" fill="#ffffff" style="fill: rgb(255, 255, 255);"></path></g><g id="SvgjsG1008" rel="mainfill" name="symbol" xmlns:name="symbol_mainfill" transform="translate(98.7599927186966,0.2980000078678131) scale(1)" fill="#ffffff"><g fill="#ffffff"><path d="M62.594,63l-9.749-20.169c0,0,0,0,0.001-0.001l3.51-3.83l-3.51-3.83c-1.809-1.973-3.881-3.653-6.132-5.023L32-0.298   L17.285,30.147c-2.25,1.37-4.322,3.05-6.131,5.023L7.644,39l3.51,3.83c0,0,0.001,0.001,0.001,0.001L1.406,63H62.594z M4.594,61   l8.057-16.67C17.868,49.223,24.804,52,32,52c7.196,0,14.132-2.777,19.349-7.669L59.406,61H4.594z M51.372,36.521L53.644,39   l-2.272,2.479c-2.884,3.146-6.478,5.506-10.422,6.937c0.894-0.847,1.679-1.822,2.311-2.915L41.529,44.5   C39.566,47.892,35.915,50,32,50c-6.065,0-11-4.935-11-11s4.935-11,11-11s11,4.935,11,11c0,1.258-0.21,2.492-0.626,3.667   l1.886,0.667C44.751,41.944,45,40.486,45,39c0-3.709-1.569-7.051-4.069-9.422C44.882,31.008,48.483,33.37,51.372,36.521z M32,4.298   l11.727,24.263C40.078,26.897,36.081,26,32,26c-4.081,0-8.078,0.897-11.727,2.561L32,4.298z M10.356,39l2.272-2.479   c2.888-3.151,6.489-5.513,10.441-6.943C20.569,31.949,19,35.291,19,39s1.569,7.051,4.069,9.422   c-3.951-1.43-7.552-3.793-10.441-6.944L10.356,39z" fill="#ffffff" style="fill: rgb(255, 255, 255);"></path><path d="M32,30c-4.962,0-9,4.038-9,9s4.038,9,9,9s9-4.038,9-9S36.962,30,32,30z M32,46c-3.86,0-7-3.14-7-7s3.14-7,7-7s7,3.14,7,7   S35.86,46,32,46z" fill="#ffffff" style="fill: rgb(255, 255, 255);"></path><path d="M32,34c-2.757,0-5,2.243-5,5s2.243,5,5,5s5-2.243,5-5S34.757,34,32,34z M32,42c-1.654,0-3-1.346-3-3s1.346-3,3-3   s3,1.346,3,3S33.654,42,32,42z" fill="#ffffff" style="fill: rgb(255, 255, 255);"></path></g></g></svg>
