
<svg width="20" height="18" viewBox="0 0 20 18" fill="none" xmlns="http://www.w3.org/2000/svg">
<path d="M9.66106 16.3281C9.66106 17.2454 8.91743 17.989 8.00011 17.989C7.08278 17.989 6.33916 17.2454 6.33916 16.3281C6.33916 15.4108 7.08279 14.6671 8.00012 14.6671C8.91744 14.6671 9.66106 15.4108 9.66106 16.3281ZM14.7254 14.6671C13.8081 14.6671 13.0645 15.4108 13.0645 16.3281C13.0645 17.2454 13.8081 17.989 14.7254 17.989C15.6427 17.989 16.3864 17.2454 16.3864 16.3281C16.3864 15.4108 15.6427 14.6671 14.7254 14.6671ZM19.8811 6.86992L17.8374 12.9444C17.8374 12.9444 17.6682 13.8459 16.8062 13.8459C15.9443 13.8459 7.51478 13.8459 6.48611 13.8459C5.45744 13.8459 5.41421 12.716 5.41421 12.716C5.41421 12.716 4.31762 4.58041 4.26328 4.08891C4.20894 3.59742 3.58038 3.23312 3.58038 3.23312L0.875931 1.96982C-0.604722 1.19553 0.0682993 -0.277718 0.875931 0.0606498C4.30527 1.67837 5.8983 2.47489 6.0008 3.1121C6.10453 3.75055 6.28482 5.28801 6.28482 5.28801V5.29789C6.30582 5.29172 6.32064 5.28801 6.32064 5.28801C6.32064 5.28801 16.8371 5.28801 18.9611 5.28801C20.4875 5.28801 19.8811 6.8724 19.8811 6.86992ZM16.9248 10.2523L16.9038 10.2536H6.89857L7.1048 11.8886H16.4382L16.9248 10.2523ZM17.8991 6.95514H6.48488L6.70469 8.70253C8.89418 8.70253 15.3058 8.70253 17.3829 8.70253L17.8991 6.95514Z" fill="white"/>
</svg>
