
<svg width="12" height="12" viewBox="0 0 12 12" fill="none" xmlns="http://www.w3.org/2000/svg">
<path d="M3.76823 3.97263L0.99634 1.20033C1.35412 0.842677 1.71118 0.484318 2.06967 0.125959C2.2354 -0.0397114 2.50285 -0.0425555 2.66929 0.120981L4.82876 2.2818C4.99378 2.44676 4.99378 2.71838 4.82663 2.88476L4.35362 3.35688L3.91334 3.79701C3.85928 3.85176 3.8102 3.91006 3.76823 3.97263ZM6.04862 8.48839C5.59482 8.09803 5.15951 7.6835 4.73701 7.26186C4.31521 6.83738 3.90195 6.40365 3.51075 5.94788C3.19067 5.57814 3.12807 5.04273 3.29523 4.59194L0.45007 1.74711C-0.21214 2.42756 -0.127497 4.11484 0.598018 5.59734C0.909562 6.23869 1.31357 6.81747 1.7311 7.3678C2.14792 7.91388 2.60528 8.43008 3.08682 8.91501C3.56978 9.39922 4.08333 9.85854 4.63103 10.2752C5.18156 10.694 5.76198 11.095 6.39929 11.4057C7.88446 12.1303 9.57306 12.2099 10.2531 11.5472L7.40719 8.70241C6.95623 8.8695 6.41992 8.80764 6.04862 8.48839ZM11.8776 9.32812L9.71817 7.16872C9.55243 7.00518 9.28072 7.00518 9.11499 7.17085H9.11357L8.63914 7.6444L8.2017 8.08381C8.14764 8.13785 8.0886 8.18549 8.02601 8.22957L10.7972 11.0012C11.1557 10.6421 11.5135 10.2852 11.8727 9.92751C12.0398 9.76184 12.0434 9.49379 11.8776 9.32812Z" fill="#464747"/>
</svg>
